G04 DesignSpark PCB Gerber Version 11.0 Build 5877*
%FSLAX35Y35*%
%MOIN*%
%ADD24R,0.05500X0.07500*%
%ADD13C,0.01500*%
%ADD23R,0.07500X0.05500*%
X0Y0D02*
D02*
D13*
X45250Y105250D02*
X49750D01*
X45250Y125250D02*
X65250D01*
X70250Y130250D01*
X104750D01*
X105250Y130750D01*
X45250Y175250D02*
X145250D01*
X190250Y220250D01*
X205250D01*
X135250Y30250D02*
X105250D01*
Y30750D01*
X135250Y40250D02*
X105250D01*
Y40750D01*
X135250Y50250D02*
X105250D01*
Y50750D01*
X135250Y60250D02*
X105250D01*
Y60750D01*
X135250Y70250D02*
X105250D01*
Y70750D01*
X135250Y80250D02*
X105250D01*
Y80750D01*
X135250Y90250D02*
X105250D01*
Y90750D01*
X135250Y100250D02*
X105250D01*
Y100750D01*
X135250Y110250D02*
X105250D01*
Y110750D01*
X135250Y120250D02*
X105250D01*
Y120750D01*
X135250Y130250D02*
X105250D01*
Y130750D01*
X135250Y150250D02*
X105250D01*
Y150750D01*
X135250Y160250D02*
X145250D01*
Y105250D01*
X45250D01*
X135250Y160250D02*
X105250D01*
Y160750D01*
X135250Y180250D02*
X105250D01*
Y180750D01*
X135250Y190250D02*
X105250D01*
Y190750D01*
X135250Y200250D02*
X105250D01*
Y200750D01*
X135250Y210250D02*
X105250D01*
Y210750D01*
X135250Y220250D02*
X105250D01*
Y220750D01*
X205250Y30250D02*
X235250D01*
Y30750D01*
X205250Y70250D02*
X235250D01*
Y70750D01*
X205250Y110250D02*
X190250D01*
Y165250D01*
X45250D01*
X235250Y30750D02*
X330750D01*
X335250Y35250D01*
Y220250D01*
X235250Y40750D02*
X325250D01*
Y220250D01*
X235250Y40750D02*
Y40250D01*
X205250D01*
X235250Y50750D02*
X305250D01*
Y220250D01*
X235250Y50750D02*
Y50250D01*
X205250D01*
X235250Y60750D02*
Y60250D01*
X205250D01*
X235250Y80750D02*
Y80250D01*
X205250D01*
X235250Y90750D02*
Y90250D01*
X205250D01*
X235250Y100750D02*
Y100250D01*
X205250D01*
X235250Y110750D02*
X205750D01*
X205250Y110250D01*
X235250Y120750D02*
Y120250D01*
X205250D01*
X235250Y130750D02*
Y130250D01*
X205250D01*
X235250Y140750D02*
Y140250D01*
X205250D01*
X235250Y150750D02*
Y150250D01*
X205250D01*
X235250Y160750D02*
Y160250D01*
X205250D01*
X235250Y170750D02*
Y170250D01*
X205250D01*
X235250Y180750D02*
Y180250D01*
X205250D01*
X235250Y190750D02*
Y190250D01*
X205250D01*
X235250Y200750D02*
Y200250D01*
X205250D01*
X235250Y210750D02*
X280250D01*
Y230250D01*
X315250D01*
Y220250D01*
X235250Y210750D02*
Y210250D01*
X205250D01*
X235250Y220750D02*
Y220250D01*
X205250D01*
D02*
D23*
X45250Y105250D03*
Y115250D03*
Y125250D03*
Y135250D03*
Y145250D03*
Y155250D03*
Y165250D03*
Y175250D03*
X105250Y30750D03*
Y40750D03*
Y50750D03*
Y60750D03*
Y70750D03*
Y80750D03*
Y90750D03*
Y100750D03*
Y110750D03*
Y120750D03*
Y130750D03*
Y140750D03*
Y150750D03*
Y160750D03*
Y170250D03*
Y180750D03*
Y190750D03*
Y200750D03*
Y210750D03*
Y220750D03*
X135250Y30250D03*
Y40250D03*
Y50250D03*
Y60250D03*
Y70250D03*
Y80250D03*
Y90250D03*
Y100250D03*
Y110250D03*
Y120250D03*
Y130250D03*
Y140250D03*
Y150250D03*
Y160250D03*
Y170250D03*
Y180250D03*
Y190250D03*
Y200250D03*
Y210250D03*
Y220250D03*
X205250Y30250D03*
Y40250D03*
Y50250D03*
Y60250D03*
Y70250D03*
Y80250D03*
Y90250D03*
Y100250D03*
Y110250D03*
Y120250D03*
Y130250D03*
Y140250D03*
Y150250D03*
Y160250D03*
Y170250D03*
Y180250D03*
Y190250D03*
Y200250D03*
Y210250D03*
Y220250D03*
X235250Y30750D03*
Y40750D03*
Y50750D03*
Y60750D03*
Y70750D03*
Y80750D03*
Y90750D03*
Y100750D03*
Y110750D03*
Y120750D03*
Y130750D03*
Y140750D03*
Y150750D03*
Y160750D03*
Y170750D03*
Y180750D03*
Y190750D03*
Y200750D03*
Y210750D03*
Y220750D03*
D02*
D24*
X305250Y220250D03*
X315250D03*
X325250D03*
X335250D03*
X0Y0D02*
M02*
