G04 DesignSpark PCB Gerber Version 11.0 Build 5877*
G04 #@! TF.Part,Single*
G04 #@! TF.FileFunction,Drillmap*
G04 #@! TF.FilePolarity,Positive*
%FSLAX35Y35*%
%MOIN*%
%ADD10C,0.00500*%
G04 #@! TA.AperFunction,WasherPad*
%ADD21C,0.10000*%
G04 #@! TD.AperFunction*
X0Y0D02*
D02*
D10*
X45250Y111187D02*
X46813Y114937D01*
X48375Y111187D01*
X45875Y112750D02*
X47750D01*
X45250Y121187D02*
X46813Y124937D01*
X48375Y121187D01*
X45875Y122750D02*
X47750D01*
X45250Y131187D02*
X46813Y134937D01*
X48375Y131187D01*
X45875Y132750D02*
X47750D01*
X45250Y141187D02*
X46813Y144937D01*
X48375Y141187D01*
X45875Y142750D02*
X47750D01*
X45250Y151187D02*
X46813Y154937D01*
X48375Y151187D01*
X45875Y152750D02*
X47750D01*
X45250Y161187D02*
X46813Y164937D01*
X48375Y161187D01*
X45875Y162750D02*
X47750D01*
X45250Y171187D02*
X46813Y174937D01*
X48375Y171187D01*
X45875Y172750D02*
X47750D01*
X45250Y181187D02*
X46813Y184937D01*
X48375Y181187D01*
X45875Y182750D02*
X47750D01*
X85250Y36687D02*
X86813Y40437D01*
X88375Y36687D01*
X85875Y38250D02*
X87750D01*
X85250Y46687D02*
X86813Y50437D01*
X88375Y46687D01*
X85875Y48250D02*
X87750D01*
X85250Y56687D02*
X86813Y60437D01*
X88375Y56687D01*
X85875Y58250D02*
X87750D01*
X85250Y66687D02*
X86813Y70437D01*
X88375Y66687D01*
X85875Y68250D02*
X87750D01*
X85250Y76687D02*
X86813Y80437D01*
X88375Y76687D01*
X85875Y78250D02*
X87750D01*
X85250Y86687D02*
X86813Y90437D01*
X88375Y86687D01*
X85875Y88250D02*
X87750D01*
X85250Y96687D02*
X86813Y100437D01*
X88375Y96687D01*
X85875Y98250D02*
X87750D01*
X85250Y106687D02*
X86813Y110437D01*
X88375Y106687D01*
X85875Y108250D02*
X87750D01*
X87437Y118563D02*
X88063Y118250D01*
X88375Y117625D01*
X88063Y117000D01*
X87437Y116687D01*
X85250D01*
Y120437D01*
X87437D01*
X88063Y120125D01*
X88375Y119500D01*
X88063Y118875D01*
X87437Y118563D01*
X85250D01*
X87437Y128563D02*
X88063Y128250D01*
X88375Y127625D01*
X88063Y127000D01*
X87437Y126687D01*
X85250D01*
Y130437D01*
X87437D01*
X88063Y130125D01*
X88375Y129500D01*
X88063Y128875D01*
X87437Y128563D01*
X85250D01*
Y136687D02*
X86813Y140437D01*
X88375Y136687D01*
X85875Y138250D02*
X87750D01*
X85250Y146687D02*
X86813Y150437D01*
X88375Y146687D01*
X85875Y148250D02*
X87750D01*
X87437Y158563D02*
X88063Y158250D01*
X88375Y157625D01*
X88063Y157000D01*
X87437Y156687D01*
X85250D01*
Y160437D01*
X87437D01*
X88063Y160125D01*
X88375Y159500D01*
X88063Y158875D01*
X87437Y158563D01*
X85250D01*
X87437Y168563D02*
X88063Y168250D01*
X88375Y167625D01*
X88063Y167000D01*
X87437Y166687D01*
X85250D01*
Y170437D01*
X87437D01*
X88063Y170125D01*
X88375Y169500D01*
X88063Y168875D01*
X87437Y168563D01*
X85250D01*
X87437Y178563D02*
X88063Y178250D01*
X88375Y177625D01*
X88063Y177000D01*
X87437Y176687D01*
X85250D01*
Y180437D01*
X87437D01*
X88063Y180125D01*
X88375Y179500D01*
X88063Y178875D01*
X87437Y178563D01*
X85250D01*
X87437Y188563D02*
X88063Y188250D01*
X88375Y187625D01*
X88063Y187000D01*
X87437Y186687D01*
X85250D01*
Y190437D01*
X87437D01*
X88063Y190125D01*
X88375Y189500D01*
X88063Y188875D01*
X87437Y188563D01*
X85250D01*
X87437Y198563D02*
X88063Y198250D01*
X88375Y197625D01*
X88063Y197000D01*
X87437Y196687D01*
X85250D01*
Y200437D01*
X87437D01*
X88063Y200125D01*
X88375Y199500D01*
X88063Y198875D01*
X87437Y198563D01*
X85250D01*
Y206687D02*
X86813Y210437D01*
X88375Y206687D01*
X85875Y208250D02*
X87750D01*
X85250Y216687D02*
X86813Y220437D01*
X88375Y216687D01*
X85875Y218250D02*
X87750D01*
X85250Y226687D02*
X86813Y230437D01*
X88375Y226687D01*
X85875Y228250D02*
X87750D01*
X115250Y36187D02*
X116813Y39937D01*
X118375Y36187D01*
X115875Y37750D02*
X117750D01*
X115250Y46187D02*
X116813Y49937D01*
X118375Y46187D01*
X115875Y47750D02*
X117750D01*
X115250Y56187D02*
X116813Y59937D01*
X118375Y56187D01*
X115875Y57750D02*
X117750D01*
X115250Y66187D02*
X116813Y69937D01*
X118375Y66187D01*
X115875Y67750D02*
X117750D01*
X115250Y76187D02*
X116813Y79937D01*
X118375Y76187D01*
X115875Y77750D02*
X117750D01*
X115250Y86187D02*
X116813Y89937D01*
X118375Y86187D01*
X115875Y87750D02*
X117750D01*
X115250Y96187D02*
X116813Y99937D01*
X118375Y96187D01*
X115875Y97750D02*
X117750D01*
X115250Y106187D02*
X116813Y109937D01*
X118375Y106187D01*
X115875Y107750D02*
X117750D01*
X117437Y118063D02*
X118063Y117750D01*
X118375Y117125D01*
X118063Y116500D01*
X117437Y116187D01*
X115250D01*
Y119937D01*
X117437D01*
X118063Y119625D01*
X118375Y119000D01*
X118063Y118375D01*
X117437Y118063D01*
X115250D01*
X117437Y128063D02*
X118063Y127750D01*
X118375Y127125D01*
X118063Y126500D01*
X117437Y126187D01*
X115250D01*
Y129937D01*
X117437D01*
X118063Y129625D01*
X118375Y129000D01*
X118063Y128375D01*
X117437Y128063D01*
X115250D01*
Y136187D02*
X116813Y139937D01*
X118375Y136187D01*
X115875Y137750D02*
X117750D01*
X115250Y146187D02*
X116813Y149937D01*
X118375Y146187D01*
X115875Y147750D02*
X117750D01*
X117437Y158063D02*
X118063Y157750D01*
X118375Y157125D01*
X118063Y156500D01*
X117437Y156187D01*
X115250D01*
Y159937D01*
X117437D01*
X118063Y159625D01*
X118375Y159000D01*
X118063Y158375D01*
X117437Y158063D01*
X115250D01*
X117437Y168063D02*
X118063Y167750D01*
X118375Y167125D01*
X118063Y166500D01*
X117437Y166187D01*
X115250D01*
Y169937D01*
X117437D01*
X118063Y169625D01*
X118375Y169000D01*
X118063Y168375D01*
X117437Y168063D01*
X115250D01*
X117437Y178063D02*
X118063Y177750D01*
X118375Y177125D01*
X118063Y176500D01*
X117437Y176187D01*
X115250D01*
Y179937D01*
X117437D01*
X118063Y179625D01*
X118375Y179000D01*
X118063Y178375D01*
X117437Y178063D01*
X115250D01*
X117437Y188063D02*
X118063Y187750D01*
X118375Y187125D01*
X118063Y186500D01*
X117437Y186187D01*
X115250D01*
Y189937D01*
X117437D01*
X118063Y189625D01*
X118375Y189000D01*
X118063Y188375D01*
X117437Y188063D01*
X115250D01*
X117437Y198063D02*
X118063Y197750D01*
X118375Y197125D01*
X118063Y196500D01*
X117437Y196187D01*
X115250D01*
Y199937D01*
X117437D01*
X118063Y199625D01*
X118375Y199000D01*
X118063Y198375D01*
X117437Y198063D01*
X115250D01*
Y206187D02*
X116813Y209937D01*
X118375Y206187D01*
X115875Y207750D02*
X117750D01*
X115250Y216187D02*
X116813Y219937D01*
X118375Y216187D01*
X115875Y217750D02*
X117750D01*
X115250Y226187D02*
X116813Y229937D01*
X118375Y226187D01*
X115875Y227750D02*
X117750D01*
X185250Y36187D02*
X186813Y39937D01*
X188375Y36187D01*
X185875Y37750D02*
X187750D01*
X185250Y46187D02*
X186813Y49937D01*
X188375Y46187D01*
X185875Y47750D02*
X187750D01*
X185250Y56187D02*
X186813Y59937D01*
X188375Y56187D01*
X185875Y57750D02*
X187750D01*
X185250Y66187D02*
X186813Y69937D01*
X188375Y66187D01*
X185875Y67750D02*
X187750D01*
X185250Y76187D02*
X186813Y79937D01*
X188375Y76187D01*
X185875Y77750D02*
X187750D01*
X185250Y86187D02*
X186813Y89937D01*
X188375Y86187D01*
X185875Y87750D02*
X187750D01*
X185250Y96187D02*
X186813Y99937D01*
X188375Y96187D01*
X185875Y97750D02*
X187750D01*
X185250Y106187D02*
X186813Y109937D01*
X188375Y106187D01*
X185875Y107750D02*
X187750D01*
X185250Y116187D02*
X186813Y119937D01*
X188375Y116187D01*
X185875Y117750D02*
X187750D01*
X185250Y126187D02*
X186813Y129937D01*
X188375Y126187D01*
X185875Y127750D02*
X187750D01*
X185250Y136187D02*
X186813Y139937D01*
X188375Y136187D01*
X185875Y137750D02*
X187750D01*
X185250Y146187D02*
X186813Y149937D01*
X188375Y146187D01*
X185875Y147750D02*
X187750D01*
X185250Y156187D02*
X186813Y159937D01*
X188375Y156187D01*
X185875Y157750D02*
X187750D01*
X185250Y166187D02*
X186813Y169937D01*
X188375Y166187D01*
X185875Y167750D02*
X187750D01*
X185250Y176187D02*
X186813Y179937D01*
X188375Y176187D01*
X185875Y177750D02*
X187750D01*
X185250Y186187D02*
X186813Y189937D01*
X188375Y186187D01*
X185875Y187750D02*
X187750D01*
X185250Y196187D02*
X186813Y199937D01*
X188375Y196187D01*
X185875Y197750D02*
X187750D01*
X185250Y206187D02*
X186813Y209937D01*
X188375Y206187D01*
X185875Y207750D02*
X187750D01*
X185250Y216187D02*
X186813Y219937D01*
X188375Y216187D01*
X185875Y217750D02*
X187750D01*
X185250Y226187D02*
X186813Y229937D01*
X188375Y226187D01*
X185875Y227750D02*
X187750D01*
X215250Y36687D02*
X216813Y40437D01*
X218375Y36687D01*
X215875Y38250D02*
X217750D01*
X215250Y46687D02*
X216813Y50437D01*
X218375Y46687D01*
X215875Y48250D02*
X217750D01*
X215250Y56687D02*
X216813Y60437D01*
X218375Y56687D01*
X215875Y58250D02*
X217750D01*
X215250Y66687D02*
X216813Y70437D01*
X218375Y66687D01*
X215875Y68250D02*
X217750D01*
X215250Y76687D02*
X216813Y80437D01*
X218375Y76687D01*
X215875Y78250D02*
X217750D01*
X215250Y86687D02*
X216813Y90437D01*
X218375Y86687D01*
X215875Y88250D02*
X217750D01*
X215250Y96687D02*
X216813Y100437D01*
X218375Y96687D01*
X215875Y98250D02*
X217750D01*
X215250Y106687D02*
X216813Y110437D01*
X218375Y106687D01*
X215875Y108250D02*
X217750D01*
X215250Y116687D02*
X216813Y120437D01*
X218375Y116687D01*
X215875Y118250D02*
X217750D01*
X215250Y126687D02*
X216813Y130437D01*
X218375Y126687D01*
X215875Y128250D02*
X217750D01*
X215250Y136687D02*
X216813Y140437D01*
X218375Y136687D01*
X215875Y138250D02*
X217750D01*
X215250Y146687D02*
X216813Y150437D01*
X218375Y146687D01*
X215875Y148250D02*
X217750D01*
X215250Y156687D02*
X216813Y160437D01*
X218375Y156687D01*
X215875Y158250D02*
X217750D01*
X215250Y166687D02*
X216813Y170437D01*
X218375Y166687D01*
X215875Y168250D02*
X217750D01*
X215250Y176687D02*
X216813Y180437D01*
X218375Y176687D01*
X215875Y178250D02*
X217750D01*
X215250Y186687D02*
X216813Y190437D01*
X218375Y186687D01*
X215875Y188250D02*
X217750D01*
X215250Y196687D02*
X216813Y200437D01*
X218375Y196687D01*
X215875Y198250D02*
X217750D01*
X215250Y206687D02*
X216813Y210437D01*
X218375Y206687D01*
X215875Y208250D02*
X217750D01*
X215250Y216687D02*
X216813Y220437D01*
X218375Y216687D01*
X215875Y218250D02*
X217750D01*
X215250Y226687D02*
X216813Y230437D01*
X218375Y226687D01*
X215875Y228250D02*
X217750D01*
X245250Y226187D02*
X246813Y229937D01*
X248375Y226187D01*
X245875Y227750D02*
X247750D01*
X255250Y226187D02*
X256813Y229937D01*
X258375Y226187D01*
X255875Y227750D02*
X257750D01*
X265250Y226187D02*
X266813Y229937D01*
X268375Y226187D01*
X265875Y227750D02*
X267750D01*
X275250Y226187D02*
X276813Y229937D01*
X278375Y226187D01*
X275875Y227750D02*
X277750D01*
D02*
D21*
X35250Y105250D03*
Y115250D03*
Y125250D03*
Y135250D03*
Y145250D03*
Y155250D03*
Y165250D03*
Y175250D03*
X75250Y30750D03*
Y40750D03*
Y50750D03*
Y60750D03*
Y70750D03*
Y80750D03*
Y90750D03*
Y100750D03*
Y110750D03*
Y120750D03*
Y130750D03*
Y140750D03*
Y150750D03*
Y160750D03*
Y170750D03*
Y180750D03*
Y190750D03*
Y200750D03*
Y210750D03*
Y220750D03*
X105250Y30250D03*
Y40250D03*
Y50250D03*
Y60250D03*
Y70250D03*
Y80250D03*
Y90250D03*
Y100250D03*
Y110250D03*
Y120250D03*
Y130250D03*
Y140250D03*
Y150250D03*
Y160250D03*
Y170250D03*
Y180250D03*
Y190250D03*
Y200250D03*
Y210250D03*
Y220250D03*
X175250Y30250D03*
Y40250D03*
Y50250D03*
Y60250D03*
Y70250D03*
Y80250D03*
Y90250D03*
Y100250D03*
Y110250D03*
Y120250D03*
Y130250D03*
Y140250D03*
Y150250D03*
Y160250D03*
Y170250D03*
Y180250D03*
Y190250D03*
Y200250D03*
Y210250D03*
Y220250D03*
X205250Y30750D03*
Y40750D03*
Y50750D03*
Y60750D03*
Y70750D03*
Y80750D03*
Y90750D03*
Y100750D03*
Y110750D03*
Y120750D03*
Y130750D03*
Y140750D03*
Y150750D03*
Y160750D03*
Y170750D03*
Y180750D03*
Y190750D03*
Y200750D03*
Y210750D03*
Y220750D03*
X235250Y220250D03*
X245250D03*
X255250D03*
X265250D03*
X0Y0D02*
M02*
