G04 DesignSpark PCB Gerber Version 11.0 Build 5877*
%FSLAX35Y35*%
%MOIN*%
%ADD73C,0.03500*%
X0Y0D02*
D02*
D73*
X45250Y105250D03*
Y115250D03*
Y125250D03*
Y135250D03*
Y145250D03*
Y155250D03*
Y165250D03*
Y175250D03*
X105250Y30750D03*
Y40750D03*
Y50750D03*
Y60750D03*
Y70750D03*
Y80750D03*
Y90750D03*
Y100750D03*
Y110750D03*
Y120750D03*
Y130750D03*
Y140750D03*
Y150750D03*
Y160750D03*
Y170250D03*
Y180750D03*
Y190750D03*
Y200750D03*
Y210750D03*
Y220750D03*
X135250Y30250D03*
Y40250D03*
Y50250D03*
Y60250D03*
Y70250D03*
Y80250D03*
Y90250D03*
Y100250D03*
Y110250D03*
Y120250D03*
Y130250D03*
Y140250D03*
Y150250D03*
Y160250D03*
Y170250D03*
Y180250D03*
Y190250D03*
Y200250D03*
Y210250D03*
Y220250D03*
X205250Y30250D03*
Y40250D03*
Y50250D03*
Y60250D03*
Y70250D03*
Y80250D03*
Y90250D03*
Y100250D03*
Y110250D03*
Y120250D03*
Y130250D03*
Y140250D03*
Y150250D03*
Y160250D03*
Y170250D03*
Y180250D03*
Y190250D03*
Y200250D03*
Y210250D03*
Y220250D03*
X235250Y30750D03*
Y40750D03*
Y50750D03*
Y60750D03*
Y70750D03*
Y80750D03*
Y90750D03*
Y100750D03*
Y110750D03*
Y120750D03*
Y130750D03*
Y140750D03*
Y150750D03*
Y160750D03*
Y170750D03*
Y180750D03*
Y190750D03*
Y200750D03*
Y210750D03*
Y220750D03*
X305250Y220250D03*
X315250D03*
X325250D03*
X335250D03*
X0Y0D02*
M02*
