G05
M48
;#@! TF.GenerationSoftware,DesignSpark,DesignSpark PCB,11.0.5875
;#@! TF.CreationDate,2023-10-17T18:06:15+06:00*
;#@! TF.FileFunction,Plated,1,2,PTH
;FILE_FORMAT=3:5
;TYPE=PLATED
INCH,TZ
FMAT,2
T1C000.02500
T2C000.03000
%
T001
X0.75250Y1.10750
X0.75250Y1.20750
X0.75250Y1.50750
X0.75250Y1.60750
X0.75250Y1.70750
X0.75250Y1.80750
X0.75250Y1.90750
X1.05250Y1.10250
X1.05250Y1.20250
X1.05250Y1.50250
X1.05250Y1.60250
X1.05250Y1.70250
X1.05250Y1.80250
X1.05250Y1.90250
T002
X0.35250Y1.05250
X0.35250Y1.15250
X0.35250Y1.25250
X0.35250Y1.35250
X0.35250Y1.45250
X0.35250Y1.55250
X0.35250Y1.65250
X0.35250Y1.75250
X0.75250Y0.30750
X0.75250Y0.40750
X0.75250Y0.50750
X0.75250Y0.60750
X0.75250Y0.70750
X0.75250Y0.80750
X0.75250Y0.90750
X0.75250Y1.00750
X0.75250Y1.30750
X0.75250Y1.40750
X0.75250Y2.00750
X0.75250Y2.10750
X0.75250Y2.20750
X1.05250Y0.30250
X1.05250Y0.40250
X1.05250Y0.50250
X1.05250Y0.60250
X1.05250Y0.70250
X1.05250Y0.80250
X1.05250Y0.90250
X1.05250Y1.00250
X1.05250Y1.30250
X1.05250Y1.40250
X1.05250Y2.00250
X1.05250Y2.10250
X1.05250Y2.20250
X1.75250Y0.30250
X1.75250Y0.40250
X1.75250Y0.50250
X1.75250Y0.60250
X1.75250Y0.70250
X1.75250Y0.80250
X1.75250Y0.90250
X1.75250Y1.00250
X1.75250Y1.10250
X1.75250Y1.20250
X1.75250Y1.30250
X1.75250Y1.40250
X1.75250Y1.50250
X1.75250Y1.60250
X1.75250Y1.70250
X1.75250Y1.80250
X1.75250Y1.90250
X1.75250Y2.00250
X1.75250Y2.10250
X1.75250Y2.20250
X2.05250Y0.30750
X2.05250Y0.40750
X2.05250Y0.50750
X2.05250Y0.60750
X2.05250Y0.70750
X2.05250Y0.80750
X2.05250Y0.90750
X2.05250Y1.00750
X2.05250Y1.10750
X2.05250Y1.20750
X2.05250Y1.30750
X2.05250Y1.40750
X2.05250Y1.50750
X2.05250Y1.60750
X2.05250Y1.70750
X2.05250Y1.80750
X2.05250Y1.90750
X2.05250Y2.00750
X2.05250Y2.10750
X2.05250Y2.20750
X2.35250Y2.20250
X2.45250Y2.20250
X2.55250Y2.20250
X2.65250Y2.20250
M30
