G04 DesignSpark PCB Gerber Version 11.0 Build 5877*
%FSLAX35Y35*%
%MOIN*%
%ADD11C,0.00100*%
%ADD10C,0.00500*%
X0Y0D02*
D02*
D10*
X45250Y185250D02*
X25250D01*
Y95250D01*
X45250D01*
Y185250D01*
X51187Y160250D02*
X54937D01*
Y158063D01*
X54625Y157437D01*
X54000Y157125D01*
X53375Y157437D01*
X53063Y158063D01*
Y160250D01*
Y158063D02*
X51187Y157125D01*
Y155250D02*
X54937D01*
Y152125D01*
X53063Y152750D02*
Y155250D01*
X51187Y149313D02*
Y148063D01*
Y148687D02*
X54937D01*
Y149313D02*
Y148063D01*
X51187Y145250D02*
X54937D01*
Y143375D01*
X54625Y142750D01*
X54313Y142437D01*
X53687Y142125D01*
X52437D01*
X51813Y142437D01*
X51500Y142750D01*
X51187Y143375D01*
Y145250D01*
X52437Y140250D02*
Y137750D01*
X51187Y135250D02*
X54937D01*
Y133063D01*
X54625Y132437D01*
X54000Y132125D01*
X53375Y132437D01*
X53063Y133063D01*
Y135250D01*
Y133063D02*
X51187Y132125D01*
X51813Y127125D02*
X51500Y127437D01*
X51187Y128063D01*
Y129000D01*
X51500Y129625D01*
X51813Y129937D01*
X52437Y130250D01*
X53687D01*
X54313Y129937D01*
X54625Y129625D01*
X54937Y129000D01*
Y128063D01*
X54625Y127437D01*
X54313Y127125D01*
X51500Y125250D02*
X51187Y124625D01*
Y123687D01*
X51500Y123063D01*
X52125Y122750D01*
X52437D01*
X53063Y123063D01*
X53375Y123687D01*
Y125250D01*
X54937D01*
Y122750D01*
X51187Y117750D02*
Y120250D01*
X53375Y118063D01*
X54000Y117750D01*
X54625Y118063D01*
X54937Y118687D01*
Y119625D01*
X54625Y120250D01*
X51187Y112750D02*
Y115250D01*
X53375Y113063D01*
X54000Y112750D01*
X54625Y113063D01*
X54937Y113687D01*
Y114625D01*
X54625Y115250D01*
X137125Y207750D02*
X144625D01*
Y203375D01*
X144000Y202125D01*
X142750Y201500D01*
X141500Y202125D01*
X140875Y203375D01*
Y207750D01*
Y203375D02*
X137125Y201500D01*
X141500Y197750D02*
X142125Y196500D01*
Y194625D01*
X141500Y193375D01*
X140250Y192750D01*
X138375D01*
X137750Y193375D01*
X137125Y194625D01*
Y195875D01*
X137750Y197125D01*
X138375Y197750D01*
X139000D01*
X139625Y197125D01*
X140250Y195875D01*
Y194625D01*
X139625Y193375D01*
X139000Y192750D01*
X138375D02*
X137125D01*
X137750Y187750D02*
X137125Y186500D01*
Y184000D01*
X137750Y182750D01*
X139000D01*
X139625Y184000D01*
Y186500D01*
X140250Y187750D01*
X141500D01*
X142125Y186500D01*
Y184000D01*
X141500Y182750D01*
X142125Y177750D02*
X135250D01*
X139000D02*
X137750Y177125D01*
X137125Y175875D01*
Y174625D01*
X137750Y173375D01*
X139000Y172750D01*
X140250D01*
X141500Y173375D01*
X142125Y174625D01*
Y175875D01*
X141500Y177125D01*
X140250Y177750D01*
X139000D01*
Y167750D02*
X137750Y167125D01*
X137125Y165875D01*
Y164625D01*
X137750Y163375D01*
X139000Y162750D01*
X140250D01*
X141500Y163375D01*
X142125Y164625D01*
Y165875D01*
X141500Y167125D01*
X140250Y167750D01*
X137125D02*
X144625D01*
X137750Y152750D02*
X137125Y153375D01*
Y154625D01*
Y155875D01*
X137750Y157125D01*
X139000Y157750D01*
X140875D01*
X141500Y157125D01*
X142125Y155875D01*
Y154625D01*
X141500Y153375D01*
X140875Y152750D01*
X140250D01*
X139625Y153375D01*
X139000Y154625D01*
Y155875D01*
X139625Y157125D01*
X140250Y157750D01*
X137125Y147750D02*
X142125D01*
X140250D02*
X141500Y147125D01*
X142125Y145875D01*
Y144625D01*
X141500Y143375D01*
X137125Y137750D02*
X142125D01*
X140250D02*
X141500Y137125D01*
X142125Y135875D01*
Y134625D01*
X141500Y133375D01*
X142125Y127750D02*
X139625Y127125D01*
X138375Y125875D01*
Y124625D01*
X139625Y123375D01*
X142125Y122750D01*
X139625Y123375D02*
X137125Y124000D01*
X135875Y124625D01*
X135250Y125875D01*
X135875Y127125D01*
X137125Y107750D02*
X144625D01*
Y103375D01*
X144000Y102125D01*
X142750Y101500D01*
X141500Y102125D01*
X140875Y103375D01*
Y107750D01*
X137125Y95875D02*
Y93375D01*
Y94625D02*
X144625D01*
Y95875D02*
Y93375D01*
X137125Y77750D02*
X144625D01*
Y73375D01*
X144000Y72125D01*
X142750Y71500D01*
X141500Y72125D01*
X140875Y73375D01*
Y77750D01*
X137125Y65875D02*
Y63375D01*
Y64625D02*
X144625D01*
Y65875D02*
Y63375D01*
X138375Y51500D02*
X137750Y52125D01*
X137125Y53375D01*
Y55250D01*
X137750Y56500D01*
X138375Y57125D01*
X139625Y57750D01*
X142125D01*
X143375Y57125D01*
X144000Y56500D01*
X144625Y55250D01*
Y53375D01*
X144000Y52125D01*
X143375Y51500D01*
X139625Y47750D02*
X142125D01*
X143375Y47125D01*
X144000Y46500D01*
X144625Y45250D01*
Y44000D01*
X144000Y42750D01*
X143375Y42125D01*
X142125Y41500D01*
X139625D01*
X138375Y42125D01*
X137750Y42750D01*
X137125Y44000D01*
Y45250D01*
X137750Y46500D01*
X138375Y47125D01*
X139625Y47750D01*
X32750Y6656D02*
Y12281D01*
X37437D01*
X36500Y9469D02*
X32750D01*
X40250Y6656D02*
X42594Y12281D01*
X44937Y6656D01*
X41187Y9000D02*
X44000D01*
X47750Y6656D02*
Y12281D01*
X51031D01*
X51969Y11813D01*
X52437Y10875D01*
X51969Y9937D01*
X51031Y9469D01*
X47750D01*
X51031D02*
X52437Y6656D01*
X55250D02*
Y12281D01*
X57594Y9469D01*
X59937Y12281D01*
Y6656D01*
X70250D02*
X72594Y12281D01*
X74937Y6656D01*
X71187Y9000D02*
X74000D01*
X77750Y6656D02*
Y12281D01*
X82437Y6656D01*
Y12281D01*
X86656Y6656D02*
X88531D01*
X87594D02*
Y12281D01*
X86656D02*
X88531D01*
X92750Y6656D02*
Y12281D01*
X95094Y9469D01*
X97437Y12281D01*
Y6656D01*
X100250D02*
X102594Y12281D01*
X104937Y6656D01*
X101187Y9000D02*
X104000D01*
X107750Y12281D02*
Y6656D01*
X112437D01*
X122750D02*
Y12281D01*
X125094Y9469D01*
X127437Y12281D01*
Y6656D01*
X130250D02*
X132594Y12281D01*
X134937Y6656D01*
X131187Y9000D02*
X134000D01*
X137750Y6656D02*
Y12281D01*
X142437Y6656D01*
Y12281D01*
X145250Y6656D02*
X147594Y12281D01*
X149937Y6656D01*
X146187Y9000D02*
X149000D01*
X156031D02*
X157437D01*
Y8531D01*
X156969Y7594D01*
X156500Y7125D01*
X155563Y6656D01*
X154625D01*
X153687Y7125D01*
X153219Y7594D01*
X152750Y8531D01*
Y10406D01*
X153219Y11344D01*
X153687Y11813D01*
X154625Y12281D01*
X155563D01*
X156500Y11813D01*
X156969Y11344D01*
X157437Y10406D01*
X160250Y6656D02*
Y12281D01*
X164937D01*
X164000Y9469D02*
X160250D01*
Y6656D02*
X164937D01*
X167750D02*
Y12281D01*
X170094Y9469D01*
X172437Y12281D01*
Y6656D01*
X175250D02*
Y12281D01*
X179937D01*
X179000Y9469D02*
X175250D01*
Y6656D02*
X179937D01*
X182750D02*
Y12281D01*
X187437Y6656D01*
Y12281D01*
X192594Y6656D02*
Y12281D01*
X190250D02*
X194937D01*
X212750Y10406D02*
X214625Y6656D01*
X216500Y10406D01*
X220719Y7125D02*
X221656Y6656D01*
X222594D01*
X223531Y7125D01*
X224000Y8063D01*
X223531Y9000D01*
X222594Y9469D01*
X221656D01*
X222594D02*
X223531Y9937D01*
X224000Y10875D01*
X223531Y11813D01*
X222594Y12281D01*
X221656D01*
X220719Y11813D01*
X228219Y6656D02*
X228687Y7125D01*
X228219Y7594D01*
X227750Y7125D01*
X228219Y6656D01*
X235719Y7125D02*
X236656Y6656D01*
X237594D01*
X238531Y7125D01*
X239000Y8063D01*
Y10875D01*
X238531Y11813D01*
X237594Y12281D01*
X236656D01*
X235719Y11813D01*
X235250Y10875D01*
Y8063D01*
X235719Y7125D01*
X238531Y11813D01*
X243219Y6656D02*
X243687Y7125D01*
X243219Y7594D01*
X242750Y7125D01*
X243219Y6656D01*
X250719Y7125D02*
X251656Y6656D01*
X252594D01*
X253531Y7125D01*
X254000Y8063D01*
Y10875D01*
X253531Y11813D01*
X252594Y12281D01*
X251656D01*
X250719Y11813D01*
X250250Y10875D01*
Y8063D01*
X250719Y7125D01*
X253531Y11813D01*
X189750Y234750D02*
Y15750D01*
X90750D01*
Y234750D01*
X136250D01*
Y230750D01*
X144250D01*
Y234750D01*
X189750D01*
X220250Y175250D02*
X280250D01*
Y230250D01*
X220250D01*
Y175250D01*
X236500Y239156D02*
Y238687D01*
X236344D01*
X236031Y238844D01*
X235875Y239000D01*
X235719Y239313D01*
Y239625D01*
X235875Y239937D01*
X236031Y240094D01*
X236344Y240250D01*
X236969D01*
X237281Y240094D01*
X237437Y239937D01*
X237594Y239625D01*
Y239313D01*
X237437Y239000D01*
X237281Y238844D01*
X236969Y238687D01*
X235719Y237750D02*
X237594D01*
X235719Y236187D01*
X237594D01*
X235719Y235250D02*
X237594D01*
Y234313D01*
X237437Y234000D01*
X237281Y233844D01*
X236969Y233687D01*
X236344D01*
X236031Y233844D01*
X235875Y234000D01*
X235719Y234313D01*
Y235250D01*
X247594Y240250D02*
X245719Y239469D01*
X247594Y238687D01*
X246031Y236187D02*
X245875Y236344D01*
X245719Y236656D01*
Y237125D01*
X245875Y237437D01*
X246031Y237594D01*
X246344Y237750D01*
X246969D01*
X247281Y237594D01*
X247437Y237437D01*
X247594Y237125D01*
Y236656D01*
X247437Y236344D01*
X247281Y236187D01*
X246031Y233687D02*
X245875Y233844D01*
X245719Y234156D01*
Y234625D01*
X245875Y234937D01*
X246031Y235094D01*
X246344Y235250D01*
X246969D01*
X247281Y235094D01*
X247437Y234937D01*
X247594Y234625D01*
Y234156D01*
X247437Y233844D01*
X247281Y233687D01*
X240250Y192437D02*
Y193687D01*
X240563Y194313D01*
X240875Y194625D01*
X241500Y194937D01*
X242125D01*
X242750Y194625D01*
X243063Y194313D01*
X243375Y193687D01*
Y192437D01*
X243063Y191813D01*
X242750Y191500D01*
X242125Y191187D01*
X241500D01*
X240875Y191500D01*
X240563Y191813D01*
X240250Y192437D01*
X245250Y194937D02*
Y191187D01*
X248375D01*
X250250D02*
Y194937D01*
X253375D01*
X252750Y193063D02*
X250250D01*
Y191187D02*
X253375D01*
X255250D02*
Y194937D01*
X257125D01*
X257750Y194625D01*
X258063Y194313D01*
X258375Y193687D01*
Y192437D01*
X258063Y191813D01*
X257750Y191500D01*
X257125Y191187D01*
X255250D01*
X232750Y202125D02*
X233063Y201500D01*
X233687Y201187D01*
X234937D01*
X235563Y201500D01*
X235875Y202125D01*
X235563Y202750D01*
X234937Y203063D01*
X233687D01*
X233063Y203375D01*
X232750Y204000D01*
X233063Y204625D01*
X233687Y204937D01*
X234937D01*
X235563Y204625D01*
X235875Y204000D01*
X237750Y202125D02*
X238063Y201500D01*
X238687Y201187D01*
X239937D01*
X240563Y201500D01*
X240875Y202125D01*
X240563Y202750D01*
X239937Y203063D01*
X238687D01*
X238063Y203375D01*
X237750Y204000D01*
X238063Y204625D01*
X238687Y204937D01*
X239937D01*
X240563Y204625D01*
X240875Y204000D01*
X242750Y201187D02*
Y204937D01*
X244625D01*
X245250Y204625D01*
X245563Y204313D01*
X245875Y203687D01*
Y202437D01*
X245563Y201813D01*
X245250Y201500D01*
X244625Y201187D01*
X242750D01*
X248375D02*
X249625D01*
X249000D02*
Y204937D01*
X248375Y204313D01*
X253063Y201500D02*
X253687Y201187D01*
X254313D01*
X254937Y201500D01*
X255250Y202125D01*
X254937Y202750D01*
X254313Y203063D01*
X253687D01*
X254313D02*
X254937Y203375D01*
X255250Y204000D01*
X254937Y204625D01*
X254313Y204937D01*
X253687D01*
X253063Y204625D01*
X258063Y201500D02*
X258687Y201187D01*
X259313D01*
X259937Y201500D01*
X260250Y202125D01*
Y204000D01*
X259937Y204625D01*
X259313Y204937D01*
X258687D01*
X258063Y204625D01*
X257750Y204000D01*
Y202125D01*
X258063Y201500D01*
X259937Y204625D01*
X262750Y202125D02*
X263063Y202750D01*
X263687Y203063D01*
X264313D01*
X264937Y202750D01*
X265250Y202125D01*
X264937Y201500D01*
X264313Y201187D01*
X263687D01*
X263063Y201500D01*
X262750Y202125D01*
Y203063D01*
X263063Y204000D01*
X263687Y204625D01*
X264313Y204937D01*
X256187Y240250D02*
X255875Y240094D01*
X255719Y239781D01*
Y239156D01*
X255875Y238844D01*
X256187Y238687D01*
X256500Y238844D01*
X256656Y239156D01*
Y239781D01*
X256813Y240094D01*
X257125Y240250D01*
X257437Y240094D01*
X257594Y239781D01*
Y239156D01*
X257437Y238844D01*
X257125Y238687D01*
X256031Y236187D02*
X255875Y236344D01*
X255719Y236656D01*
Y237125D01*
X255875Y237437D01*
X256031Y237594D01*
X256344Y237750D01*
X256969D01*
X257281Y237594D01*
X257437Y237437D01*
X257594Y237125D01*
Y236656D01*
X257437Y236344D01*
X257281Y236187D01*
X257594Y235250D02*
X255719D01*
Y233687D01*
X266187Y240250D02*
X265875Y240094D01*
X265719Y239781D01*
Y239156D01*
X265875Y238844D01*
X266187Y238687D01*
X266500Y238844D01*
X266656Y239156D01*
Y239781D01*
X266813Y240094D01*
X267125Y240250D01*
X267437Y240094D01*
X267594Y239781D01*
Y239156D01*
X267437Y238844D01*
X267125Y238687D01*
X265719Y237750D02*
X267594D01*
Y236813D01*
X267437Y236500D01*
X267281Y236344D01*
X266969Y236187D01*
X266344D01*
X266031Y236344D01*
X265875Y236500D01*
X265719Y236813D01*
Y237750D01*
Y235250D02*
X267594Y234469D01*
X265719Y233687D01*
X266500Y234937D02*
Y234000D01*
D02*
D11*
X15250Y106187D02*
X15406Y105875D01*
X15719Y105719D01*
X16344D01*
X16656Y105875D01*
X16813Y106187D01*
X16656Y106500D01*
X16344Y106656D01*
X15719D01*
X15406Y106813D01*
X15250Y107125D01*
X15406Y107437D01*
X15719Y107594D01*
X16344D01*
X16656Y107437D01*
X16813Y107125D01*
X17750Y105719D02*
Y107594D01*
X18687D01*
X19000Y107437D01*
X19156Y107281D01*
X19313Y106969D01*
Y106344D01*
X19156Y106031D01*
X19000Y105875D01*
X18687Y105719D01*
X17750D01*
X20250D02*
X21031Y107594D01*
X21813Y105719D01*
X20563Y106500D02*
X21500D01*
X15250Y116187D02*
X15406Y115875D01*
X15719Y115719D01*
X16344D01*
X16656Y115875D01*
X16813Y116187D01*
X16656Y116500D01*
X16344Y116656D01*
X15719D01*
X15406Y116813D01*
X15250Y117125D01*
X15406Y117437D01*
X15719Y117594D01*
X16344D01*
X16656Y117437D01*
X16813Y117125D01*
X19313Y116031D02*
X19156Y115875D01*
X18844Y115719D01*
X18375D01*
X18063Y115875D01*
X17906Y116031D01*
X17750Y116344D01*
Y116969D01*
X17906Y117281D01*
X18063Y117437D01*
X18375Y117594D01*
X18844D01*
X19156Y117437D01*
X19313Y117281D01*
X20250Y115719D02*
Y117594D01*
Y116656D02*
X20719D01*
X21813Y117594D01*
X20719Y116656D02*
X21813Y115719D01*
X15250Y125719D02*
Y127594D01*
X16031Y126656D01*
X16813Y127594D01*
Y125719D01*
X17750Y126344D02*
Y126969D01*
X17906Y127281D01*
X18063Y127437D01*
X18375Y127594D01*
X18687D01*
X19000Y127437D01*
X19156Y127281D01*
X19313Y126969D01*
Y126344D01*
X19156Y126031D01*
X19000Y125875D01*
X18687Y125719D01*
X18375D01*
X18063Y125875D01*
X17906Y126031D01*
X17750Y126344D01*
X20250Y126187D02*
X20406Y125875D01*
X20719Y125719D01*
X21344D01*
X21656Y125875D01*
X21813Y126187D01*
X21656Y126500D01*
X21344Y126656D01*
X20719D01*
X20406Y126813D01*
X20250Y127125D01*
X20406Y127437D01*
X20719Y127594D01*
X21344D01*
X21656Y127437D01*
X21813Y127125D01*
X23219Y125719D02*
X23844D01*
X23531D02*
Y127594D01*
X23219D02*
X23844D01*
X15250Y135719D02*
Y137594D01*
X16031Y136656D01*
X16813Y137594D01*
Y135719D01*
X18219D02*
X18844D01*
X18531D02*
Y137594D01*
X18219D02*
X18844D01*
X20250Y136187D02*
X20406Y135875D01*
X20719Y135719D01*
X21344D01*
X21656Y135875D01*
X21813Y136187D01*
X21656Y136500D01*
X21344Y136656D01*
X20719D01*
X20406Y136813D01*
X20250Y137125D01*
X20406Y137437D01*
X20719Y137594D01*
X21344D01*
X21656Y137437D01*
X21813Y137125D01*
X22750Y136344D02*
Y136969D01*
X22906Y137281D01*
X23063Y137437D01*
X23375Y137594D01*
X23687D01*
X24000Y137437D01*
X24156Y137281D01*
X24313Y136969D01*
Y136344D01*
X24156Y136031D01*
X24000Y135875D01*
X23687Y135719D01*
X23375D01*
X23063Y135875D01*
X22906Y136031D01*
X22750Y136344D01*
X15719Y145719D02*
X16344D01*
X16031D02*
Y147594D01*
X15719D02*
X16344D01*
X17750Y145719D02*
Y147594D01*
X18844D01*
X19156Y147437D01*
X19313Y147125D01*
X19156Y146813D01*
X18844Y146656D01*
X17750D01*
X18844D02*
X19313Y145719D01*
X20250Y146344D02*
Y146969D01*
X20406Y147281D01*
X20563Y147437D01*
X20875Y147594D01*
X21187D01*
X21500Y147437D01*
X21656Y147281D01*
X21813Y146969D01*
Y146344D01*
X21656Y146031D01*
X21500Y145875D01*
X21187Y145719D01*
X20875D01*
X20563Y145875D01*
X20406Y146031D01*
X20250Y146344D01*
X21344Y146187D02*
X21813Y145719D01*
X16344Y156500D02*
X16813D01*
Y156344D01*
X16656Y156031D01*
X16500Y155875D01*
X16187Y155719D01*
X15875D01*
X15563Y155875D01*
X15406Y156031D01*
X15250Y156344D01*
Y156969D01*
X15406Y157281D01*
X15563Y157437D01*
X15875Y157594D01*
X16187D01*
X16500Y157437D01*
X16656Y157281D01*
X16813Y156969D01*
X17750Y155719D02*
Y157594D01*
X19313Y155719D01*
Y157594D01*
X20250Y155719D02*
Y157594D01*
X21187D01*
X21500Y157437D01*
X21656Y157281D01*
X21813Y156969D01*
Y156344D01*
X21656Y156031D01*
X21500Y155875D01*
X21187Y155719D01*
X20250D01*
X15250Y165719D02*
Y167594D01*
X16344D01*
X16656Y167437D01*
X16813Y167125D01*
X16656Y166813D01*
X16344Y166656D01*
X15250D01*
X16344D02*
X16813Y165719D01*
X17750Y166187D02*
X17906Y165875D01*
X18219Y165719D01*
X18844D01*
X19156Y165875D01*
X19313Y166187D01*
X19156Y166500D01*
X18844Y166656D01*
X18219D01*
X17906Y166813D01*
X17750Y167125D01*
X17906Y167437D01*
X18219Y167594D01*
X18844D01*
X19156Y167437D01*
X19313Y167125D01*
X21031Y165719D02*
Y167594D01*
X20250D02*
X21813D01*
X15406Y175875D02*
X15719Y175719D01*
X16031D01*
X16344Y175875D01*
X16500Y176187D01*
X16344Y176500D01*
X16031Y176656D01*
X15719D01*
X16031D02*
X16344Y176813D01*
X16500Y177125D01*
X16344Y177437D01*
X16031Y177594D01*
X15719D01*
X15406Y177437D01*
X17906Y175719D02*
X18063Y175875D01*
X17906Y176031D01*
X17750Y175875D01*
X17906Y175719D01*
X20406Y175875D02*
X20719Y175719D01*
X21031D01*
X21344Y175875D01*
X21500Y176187D01*
X21344Y176500D01*
X21031Y176656D01*
X20719D01*
X21031D02*
X21344Y176813D01*
X21500Y177125D01*
X21344Y177437D01*
X21031Y177594D01*
X20719D01*
X20406Y177437D01*
X22750Y176969D02*
X23375Y175719D01*
X24000Y176969D01*
X0Y0D02*
M02*
