G05
M48
;#@! TF.GenerationSoftware,DesignSpark,DesignSpark PCB,11.0.5875
;#@! TF.CreationDate,2023-10-19T16:16:15+06:00*
;#@! TF.FileFunction,Plated,1,2,PTH
;FILE_FORMAT=2:4
;TYPE=PLATED
INCH,TZ
FMAT,2
T1C00.0250
T2C00.0300
%
T001
X7525Y11075
X7525Y12075
X7525Y15075
X7525Y16075
X7525Y17075
X7525Y18075
X7525Y19075
X10525Y11025
X10525Y12025
X10525Y15025
X10525Y16025
X10525Y17025
X10525Y18025
X10525Y19025
T002
X3525Y10525
X3525Y11525
X3525Y12525
X3525Y13525
X3525Y14525
X3525Y15525
X3525Y16525
X3525Y17525
X7525Y3075
X7525Y4075
X7525Y5075
X7525Y6075
X7525Y7075
X7525Y8075
X7525Y9075
X7525Y10075
X7525Y13075
X7525Y14075
X7525Y20075
X7525Y21075
X7525Y22075
X10525Y3025
X10525Y4025
X10525Y5025
X10525Y6025
X10525Y7025
X10525Y8025
X10525Y9025
X10525Y10025
X10525Y13025
X10525Y14025
X10525Y20025
X10525Y21025
X10525Y22025
X17525Y3025
X17525Y4025
X17525Y5025
X17525Y6025
X17525Y7025
X17525Y8025
X17525Y9025
X17525Y10025
X17525Y11025
X17525Y12025
X17525Y13025
X17525Y14025
X17525Y15025
X17525Y16025
X17525Y17025
X17525Y18025
X17525Y19025
X17525Y20025
X17525Y21025
X17525Y22025
X20525Y3075
X20525Y4075
X20525Y5075
X20525Y6075
X20525Y7075
X20525Y8075
X20525Y9075
X20525Y10075
X20525Y11075
X20525Y12075
X20525Y13075
X20525Y14075
X20525Y15075
X20525Y16075
X20525Y17075
X20525Y18075
X20525Y19075
X20525Y20075
X20525Y21075
X20525Y22075
X23525Y22025
X24525Y22025
X25525Y22025
X26525Y22025
M30
