G05
M48
;#@! TF.GenerationSoftware,DesignSpark,DesignSpark PCB,11.0.5875
;#@! TF.CreationDate,2023-11-03T02:18:43+06:00*
;#@! TF.FileFunction,Plated,1,2,PTH
;FILE_FORMAT=2:4
;TYPE=PLATED
INCH,TZ
FMAT,2
T1C00.0240
T2C00.0350
%
T001
X21525Y11025
X21525Y16525
X22525Y15525
X22525Y20025
T002
X4525Y10525
X4525Y11525
X4525Y12525
X4525Y13525
X4525Y14525
X4525Y15525
X4525Y16525
X4525Y17525
X10525Y3075
X10525Y4075
X10525Y5075
X10525Y6075
X10525Y7075
X10525Y8075
X10525Y9075
X10525Y10075
X10525Y11075
X10525Y12075
X10525Y13075
X10525Y14075
X10525Y15075
X10525Y16075
X10525Y17025
X10525Y18075
X10525Y19075
X10525Y20075
X10525Y21075
X10525Y22075
X13525Y3025
X13525Y4025
X13525Y5025
X13525Y6025
X13525Y7025
X13525Y8025
X13525Y9025
X13525Y10025
X13525Y11025
X13525Y12025
X13525Y13025
X13525Y14025
X13525Y15025
X13525Y16025
X13525Y17025
X13525Y18025
X13525Y19025
X13525Y20025
X13525Y21025
X13525Y22025
X20525Y3025
X20525Y4025
X20525Y5025
X20525Y6025
X20525Y7025
X20525Y8025
X20525Y9025
X20525Y10025
X20525Y11025
X20525Y12025
X20525Y13025
X20525Y14025
X20525Y15025
X20525Y16025
X20525Y17025
X20525Y18025
X20525Y19025
X20525Y20025
X20525Y21025
X20525Y22025
X23525Y3075
X23525Y4075
X23525Y5075
X23525Y6075
X23525Y7075
X23525Y8075
X23525Y9075
X23525Y10075
X23525Y11075
X23525Y12075
X23525Y13075
X23525Y14075
X23525Y15075
X23525Y16075
X23525Y17075
X23525Y18075
X23525Y19075
X23525Y20075
X23525Y21075
X23525Y22075
X30525Y22025
X31525Y22025
X32525Y22025
X33525Y22025
M30
